<?xml version="1.0" encoding="UTF-8"?>
<svg version="1.1" xmlns="http://www.w3.org/2000/svg" width="1024" height="1024">
<path d="M0 0 C1.855865 1.855865 1.13088522 4.96247001 1.140625 7.44140625 C1.15489412 8.87387661 1.17077572 10.30633152 1.18798828 11.73876953 C1.20155365 12.90596527 1.20155365 12.90596527 1.21539307 14.09674072 C1.44822581 30.68617609 2.55963444 47.11232988 4.125 63.625 C6.42392207 88.05434123 8.45829285 112.49635074 10.33426666 136.96172333 C10.4862122 138.94283614 10.63852949 140.92392048 10.79122162 142.90497589 C12.48817382 164.92671138 14.07398465 186.9464988 15.23046875 209.00390625 C15.27594408 209.86654524 15.32141941 210.72918423 15.36827278 211.61796379 C15.79632415 219.77334597 16.20690895 227.92914466 16.56783009 236.08779049 C16.69882258 239.00516203 16.839908 241.92199393 16.98279762 244.83880424 C17.07526713 246.81395571 17.15234369 248.78980909 17.22892761 250.76564026 C17.315252 252.51746864 17.315252 252.51746864 17.40332031 254.3046875 C17.46824677 255.8203833 17.46824677 255.8203833 17.53448486 257.36669922 C18.43048197 262.43512706 22.33521335 265.60336847 26 269 C27.051875 269.5259375 27.051875 269.5259375 28.125 270.0625 C30.50481991 271.25240995 31.43246127 272.88723041 33 275 C33.99 275.33 34.98 275.66 36 276 C36 276.66 36 277.32 36 278 C36.59022949 278.26353271 37.18045898 278.52706543 37.78857422 278.79858398 C40.09160527 280.04976701 41.56361442 281.34804978 43.3828125 283.22265625 C43.99253906 283.84333984 44.60226562 284.46402344 45.23046875 285.10351562 C45.85566406 285.74998047 46.48085938 286.39644531 47.125 287.0625 C48.37536074 288.3472393 49.62786516 289.62989681 50.8828125 290.91015625 C51.43340332 291.47871338 51.98399414 292.04727051 52.55126953 292.63305664 C53.97414012 294.10729905 53.97414012 294.10729905 56 295 C56 295.66 56 296.32 56 297 C56.66 297 57.32 297 58 297 C59.62109375 298.64453125 59.62109375 298.64453125 61.4375 300.8125 C63.97339332 303.82463265 63.97339332 303.82463265 66.72265625 306.63671875 C68 308 68 308 68 310 C68.66 310 69.32 310 70 310 C70 310.66 70 311.32 70 312 C70.8971875 312.37125 70.8971875 312.37125 71.8125 312.75 C74.37064037 314.2117945 75.32354648 315.58590694 77 318 C77.75667969 318.8971875 78.51335938 319.794375 79.29296875 320.71875 C81.99711581 323.94468111 84.45102878 327.31080809 86.875 330.75 C87.30627197 331.35835693 87.73754395 331.96671387 88.18188477 332.59350586 C89.45698291 334.39399276 90.72854127 336.19694218 92 338 C92.69222656 338.97582031 93.38445313 339.95164062 94.09765625 340.95703125 C98.63705294 347.38543378 98.63705294 347.38543378 100.56640625 350.65234375 C101.92149831 353.07814345 101.92149831 353.07814345 104 355 C107 359.61538462 107 359.61538462 107 362 C107.66 362 108.32 362 109 362 C109.45375 363.051875 109.9075 364.10375 110.375 365.1875 C110.64957031 365.82300781 110.92414062 366.45851563 111.20703125 367.11328125 C111.86706264 368.68370076 112.47198692 370.27714107 113.0625 371.875 C113.80419312 374.16785238 113.80419312 374.16785238 116 375 C116.92626953 376.55615234 116.92626953 376.55615234 117.8828125 378.5859375 C118.24101074 379.34084473 118.59920898 380.09575195 118.96826172 380.87353516 C119.34998535 381.69901855 119.73170898 382.52450195 120.125 383.375 C120.52605957 384.23786621 120.92711914 385.10073242 121.34033203 385.98974609 C122.57046299 388.65527248 123.78671799 391.32676873 125 394 C125.33837891 394.73541016 125.67675781 395.47082031 126.02539062 396.22851562 C143.55565029 434.60943038 154.9947239 477.9302448 155.23828125 520.2109375 C155.24235678 520.88393513 155.2464323 521.55693275 155.25063133 522.25032425 C155.27138389 525.8293144 155.28571841 529.40826773 155.29516602 532.98730469 C155.30391968 535.88042964 155.3245519 538.7730575 155.35668945 541.66601562 C155.5686017 561.17972565 154.40570356 579.71937267 151 599 C150.75966034 600.40074516 150.75966034 600.40074516 150.51446533 601.82978821 C146.38526252 625.80813897 138.75350477 648.79334547 129.90454102 671.39819336 C128.93225122 673.98282962 128.93225122 673.98282962 128.49975586 676.71313477 C128 679 128 679 126 681 C125.2099265 682.43701774 124.4661429 683.89974563 123.75 685.375 C123.30914063 686.27347656 122.86828125 687.17195312 122.4140625 688.09765625 C121.94742188 689.05542969 121.48078125 690.01320313 121 691 C109.95310621 713.42946668 109.95310621 713.42946668 103.4609375 722.82421875 C101.89027759 725.16341012 100.47716922 727.56362523 99.0625 730 C96.60111669 734.14918901 93.86130295 737.8975437 90.84375 741.65625 C88.84838696 744.19272844 86.9894852 746.80354472 85.125 749.4375 C81.77716654 754.07544269 78.1458163 758.28743339 74.265625 762.484375 C72.00185653 764.99793861 69.90820077 767.59544569 67.8125 770.25 C59.87502335 780.05347993 50.63921874 788.88276317 41 797 C39.70714611 798.14449361 38.41551789 799.29037299 37.125 800.4375 C30.08020674 806.58295795 22.7117384 812.27073405 15.1875 817.8125 C14.55320068 818.28075195 13.91890137 818.74900391 13.26538086 819.23144531 C9.92978361 821.66999744 6.56933662 823.91033761 3 826 C1.61973252 826.92972734 0.24468938 827.86725809 -1.125 828.8125 C-8.10841465 833.47963355 -15.43464201 837.32956599 -23.0703125 840.81640625 C-27.48820137 842.84220956 -31.89523438 844.88737222 -36.2890625 846.96484375 C-62.56536703 859.3335386 -89.44314538 868.86030968 -118.01855469 874.45361328 C-118.9109082 874.63134277 -119.80326172 874.80907227 -120.72265625 874.9921875 C-121.50390869 875.14026855 -122.28516113 875.28834961 -123.09008789 875.44091797 C-125.21788846 875.89790437 -125.21788846 875.89790437 -127 878 C-128.86289978 878.16455078 -128.86289978 878.16455078 -131.08959961 878.0703125 C-135.6595419 877.97000323 -140.0335653 878.33173161 -144.56640625 878.875 C-146.18927802 879.05877225 -147.81224759 879.24168246 -149.43530273 879.42382812 C-150.27181366 879.51865479 -151.10832458 879.61348145 -151.97018433 879.71118164 C-176.93916206 882.49305703 -200.33734327 882.16215206 -225.29663086 879.42382812 C-226.14092148 879.33186157 -226.9852121 879.23989502 -227.85508728 879.1451416 C-229.43975992 878.97093968 -231.02400386 878.79277004 -232.60768127 878.60974121 C-236.22548944 878.20961682 -239.71419691 877.97905255 -243.35546875 878.0703125 C-247 878 -247 878 -250 876 C-252.06435135 875.40023575 -252.06435135 875.40023575 -254.375 874.9921875 C-255.26388916 874.81461914 -256.15277832 874.63705078 -257.06860352 874.45410156 C-258.03596436 874.26299805 -259.0033252 874.07189453 -260 873.875 C-280.63097435 869.56341347 -300.31676718 863.30979961 -319.66455078 854.98242188 C-323.99637486 853.16021196 -328.41220876 851.56790913 -332.83203125 849.97265625 C-335 849 -335 849 -336 847 C-338.91482276 845.87381848 -341.66237844 845.05371252 -344.75 844.5625 C-347 844 -347 844 -349 841 C-351.47130918 839.84478498 -351.47130918 839.84478498 -354 839 C-356.41188496 837.79405752 -358.43856049 836.26809946 -360.625 834.6875 C-365.59350426 831.18369931 -370.56115799 828.45871457 -376.1640625 826.08203125 C-378 825 -378 825 -379 822 C-380.65 821.67 -382.3 821.34 -384 821 C-384.33 820.01 -384.66 819.02 -385 818 C-387.14589875 816.6971329 -389.24186797 815.91937734 -391.625 815.125 C-394.4607367 813.7817563 -394.74863769 812.77087369 -396 810 C-396.99 809.67 -397.98 809.34 -399 809 C-399.66 808.67 -400.32 808.34 -401 808 C-401 807.34 -401 806.68 -401 806 C-401.74870361 805.89945313 -402.49740723 805.79890625 -403.26879883 805.6953125 C-406.3055619 804.92220968 -407.48117127 804.03817983 -409.69921875 801.875 C-410.35083984 801.25109375 -411.00246094 800.6271875 -411.67382812 799.984375 C-412.33833984 799.32953125 -413.00285156 798.6746875 -413.6875 798 C-415.02298904 796.70652348 -416.36014971 795.41476998 -417.69921875 794.125 C-418.28533936 793.55007813 -418.87145996 792.97515625 -419.4753418 792.3828125 C-420.96921239 790.90305046 -420.96921239 790.90305046 -423 790 C-423 789.34 -423 788.68 -423 788 C-423.58652344 787.74089844 -424.17304688 787.48179687 -424.77734375 787.21484375 C-427.15597158 785.91475016 -428.68918393 784.51125162 -430.5625 782.5625 C-431.14128906 781.96566406 -431.72007812 781.36882813 -432.31640625 780.75390625 C-432.87199219 780.17511719 -433.42757812 779.59632813 -434 779 C-434.56589844 778.47277344 -435.13179688 777.94554687 -435.71484375 777.40234375 C-437 776 -437 776 -437 774 C-437.85851562 773.64421875 -437.85851562 773.64421875 -438.734375 773.28125 C-441.4879292 771.72406762 -443.16795634 769.87507203 -445.25 767.5 C-445.95640625 766.7059375 -446.6628125 765.911875 -447.390625 765.09375 C-449 763 -449 763 -449 761 C-449.66 761 -450.32 761 -451 761 C-452.26171875 759.6015625 -452.26171875 759.6015625 -453.6875 757.625 C-454.21859375 756.89410156 -454.7496875 756.16320312 -455.296875 755.41015625 C-457.62460623 752.11609623 -459.92414075 748.80277077 -462.22265625 745.48828125 C-463.8731997 743.17752041 -465.59698705 740.96327709 -467.375 738.75 C-473.68120487 730.73941544 -479.123658 721.94065331 -483.9375 712.96484375 C-485.00928595 710.98282782 -486.15512991 709.0579688 -487.3125 707.125 C-489 704 -489 704 -489 701 C-489.66 701 -490.32 701 -491 701 C-492.06775224 699.03533587 -493.06553465 697.03144641 -494 695 C-493.67 694.34 -493.34 693.68 -493 693 C-493.66 693 -494.32 693 -495 693 C-496.12880057 689.68885166 -497.21302675 686.41021743 -498 683 C-498.66 683 -499.32 683 -500 683 C-500.33 680.69 -500.66 678.38 -501 676 C-501.66 676 -502.32 676 -503 676 C-503.2475 675.21625 -503.495 674.4325 -503.75 673.625 C-504.73185936 670.77760786 -505.79235469 668.03169398 -506.9375 665.25 C-509.71919946 658.3580282 -512.02734671 651.39216502 -513 644 C-513.66 644 -514.32 644 -515 644 C-515.17015625 642.80117187 -515.17015625 642.80117187 -515.34375 641.578125 C-516.14331022 637.21861811 -517.29682179 633.01268851 -518.5 628.75 C-518.72558594 627.9353125 -518.95117188 627.120625 -519.18359375 626.28125 C-520.32619287 622.04098663 -520.32619287 622.04098663 -522 618 C-522.35757256 615.67025808 -522.68709329 613.3361603 -523 611 C-523.37758776 608.70052367 -523.7632735 606.40236522 -524.15625 604.10546875 C-524.37410156 602.81962891 -524.59195313 601.53378906 -524.81640625 600.20898438 C-525.15714336 598.20147081 -525.4988598 596.19414416 -525.84326172 594.18725586 C-533.77448282 547.90283428 -531.00085652 499.49815719 -520 454 C-519.83000488 453.29101562 -519.66000977 452.58203125 -519.48486328 451.8515625 C-514.44291582 431.13094997 -506.52016624 411.4976311 -498 392 C-497.53207031 390.91589844 -497.06414062 389.83179688 -496.58203125 388.71484375 C-496.14246094 387.71582031 -495.70289063 386.71679688 -495.25 385.6875 C-494.86328125 384.80449219 -494.4765625 383.92148437 -494.078125 383.01171875 C-493 381 -493 381 -491 380 C-490.59587891 378.74703125 -490.59587891 378.74703125 -490.18359375 377.46875 C-488.6898626 373.09108248 -486.45981462 369.43671578 -484.0625 365.5 C-481.18925949 360.74054192 -478.40661655 356.01974145 -476 351 C-475.34 351 -474.68 351 -474 351 C-474 350.01 -474 349.02 -474 348 C-473.34 348 -472.68 348 -472 348 C-471.690625 347.21625 -471.38125 346.4325 -471.0625 345.625 C-470 343 -470 343 -469 341 C-468.34 341 -467.68 341 -467 341 C-466.71125 340.2575 -466.4225 339.515 -466.125 338.75 C-464.49833148 334.77369918 -463.11445112 331.9790402 -460 329 C-459.67 328.34 -459.34 327.68 -459 327 C-458.34 327 -457.68 327 -457 327 C-457 326.34 -457 325.68 -457 325 C-456.34 325 -455.68 325 -455 325 C-455 324.01 -455 323.02 -455 322 C-454.34 321.67 -453.68 321.34 -453 321 C-452.505 320.154375 -452.01 319.30875 -451.5 318.4375 C-451.005 317.633125 -450.51 316.82875 -450 316 C-449.34 316 -448.68 316 -448 316 C-447.773125 315.2575 -447.54625 314.515 -447.3125 313.75 C-445.74509959 310.46592295 -443.88172206 309.16129155 -441 307 C-440.34 306.01 -439.68 305.02 -439 304 C-438.01 303.34 -437.02 302.68 -436 302 C-434.80767387 299.94996045 -434.80767387 299.94996045 -434 298 C-433.01 298 -432.02 298 -431 298 C-430.773125 297.236875 -430.54625 296.47375 -430.3125 295.6875 C-428.71982185 292.42630188 -427.09831569 291.74776782 -424 290 C-423.67 289.01 -423.34 288.02 -423 287 C-421.66666667 286.33333333 -420.33333333 285.66666667 -419 285 C-418.525625 284.360625 -418.05125 283.72125 -417.5625 283.0625 C-415.69514192 280.59758733 -413.65365841 279.53632855 -411 278 C-410.67 277.34 -410.34 276.68 -410 276 C-408.33333333 275 -406.66666667 274 -405 273 C-404.67 272.34 -404.34 271.68 -404 271 C-402.38240144 270.10515824 -400.76438427 269.21106671 -399.14453125 268.3203125 C-395.75608783 266.234167 -392.77328963 263.67727318 -389.6953125 261.1640625 C-384.08969205 256.66331797 -378.44603374 252.20906441 -372 249 C-371.34 248.34 -370.68 247.68 -370 247 C-368.39407473 246.07040526 -366.76521992 245.18015257 -365.125 244.3125 C-361.15263419 242.19013638 -357.28276773 239.968629 -353.4375 237.625 C-346.27648743 233.41209261 -338.71893061 230.21490161 -331.10546875 226.92578125 C-328.22696995 225.66009625 -325.39759063 224.29718632 -322.5625 222.9375 C-301.64834397 213.28681357 -279.04490442 206.4742044 -256.5625 201.6875 C-255.50691895 201.45732178 -254.45133789 201.22714355 -253.36376953 200.98999023 C-231.97143694 196.67065875 -210.36748788 195.500619 -188.59179688 195.60888672 C-184.73792479 195.62505065 -180.8850919 195.60887868 -177.03125 195.58984375 C-161.79339027 195.57622815 -147.03044069 196.46527505 -132 199 C-131.29349304 199.11813049 -130.58698608 199.23626099 -129.85906982 199.35797119 C-125.73933239 200.06343624 -121.6499011 200.87805313 -117.5625 201.75 C-116.35295654 202.00458984 -115.14341309 202.25917969 -113.8972168 202.52148438 C-91.47320547 207.37690959 -67.62348344 213.68825828 -47 224 C-45.33607955 224.67349161 -43.66967972 225.3409159 -42 226 C-38.27293286 218.54586572 -41.72699689 206.78577793 -43 199 C-43.33 199 -43.66 199 -44 199 C-43.94779297 197.86304688 -43.94779297 197.86304688 -43.89453125 196.703125 C-43.69432287 188.27530565 -44.3593811 180.1227248 -45.34375 171.75390625 C-47.14179091 155.70760164 -48.28546563 139.63104028 -49.36254883 123.52270508 C-49.63429304 119.45970736 -49.91564084 115.39743878 -50.19967937 111.33528423 C-50.42221237 108.13783254 -50.63977456 104.94005676 -50.85590553 101.74216652 C-50.95767792 100.24448377 -51.06088503 98.74689764 -51.16571617 97.24942589 C-51.68514731 89.79073963 -52.10535037 82.33327644 -52.21264648 74.85595703 C-52.23173569 73.68348419 -52.25082489 72.51101135 -52.27049255 71.30300903 C-51.79952241 65.55195005 -49.25885784 61.08596775 -46.375 56.1875 C-45.85292969 55.24197266 -45.33085938 54.29644531 -44.79296875 53.32226562 C-41.76789425 47.88833551 -38.55688914 42.56998657 -35.28369141 37.2824707 C-33.95326704 34.91690634 -32.95225211 32.53868508 -32 30 C-31.34 30 -30.68 30 -30 30 C-28.92474806 27.34771188 -27.90543849 24.71631546 -27 22 C-26.34 22 -25.68 22 -25 22 C-25 21.01 -25 20.02 -25 19 C-24.34 19 -23.68 19 -23 19 C-22.9175 18.2575 -22.835 17.515 -22.75 16.75 C-21.85402764 13.46476803 -20.48719278 12.25401846 -18 10 C-17.67 9.34 -17.34 8.68 -17 8 C-16.34 8 -15.68 8 -15 8 C-14.9175 7.4225 -14.835 6.845 -14.75 6.25 C-12.31853 -1.04441001 -6.69212483 -0.74356943 0 0 Z M-40 225 C-39 227 -39 227 -39 227 Z M-202 250 C-202 250.33 -202 250.66 -202 251 C-199.03 251 -196.06 251 -193 251 C-193 250.67 -193 250.34 -193 250 C-195.97 250 -198.94 250 -202 250 Z M-176 250 C-176 250.33 -176 250.66 -176 251 C-174.35 251 -172.7 251 -171 251 C-171 250.67 -171 250.34 -171 250 C-172.65 250 -174.3 250 -176 250 Z M-240 256 C-242.01681117 256.31829158 -244.03863768 256.60515169 -246.0625 256.875 C-250.95561107 257.59251243 -255.35633286 258.64069576 -259.98828125 260.3359375 C-262.96964245 261.32007615 -265.88405257 261.66851623 -269 262 C-269 262.33 -269 262.66 -269 263 C-270.7634375 263.4021875 -270.7634375 263.4021875 -272.5625 263.8125 C-275.45685837 264.52715639 -277.85421462 265.36819596 -280.625 266.5625 C-283.82102476 267.9237698 -286.56818773 268.58148631 -290 269 C-290 269.66 -290 270.32 -290 271 C-290.70125 271.12375 -291.4025 271.2475 -292.125 271.375 C-295.18037413 272.03921177 -298.04838839 272.97335248 -301 274 C-301.99 274.33 -302.98 274.66 -304 275 C-304 275.66 -304 276.32 -304 277 C-305.32 277 -306.64 277 -308 277 C-308 277.66 -308 278.32 -308 279 C-308.58265625 279.1340625 -309.1653125 279.268125 -309.765625 279.40625 C-327.68018762 284.16676314 -344.51926929 297.56221158 -359.10180664 308.40771484 C-363.8072938 311.9036469 -363.8072938 311.9036469 -366 313 C-366 313.66 -366 314.32 -366 315 C-366.7734375 315.3403125 -366.7734375 315.3403125 -367.5625 315.6875 C-372.44599937 318.31707658 -376.59579651 321.49586529 -380.48071289 325.4543457 C-382.31374796 327.31919304 -384.17241825 329.15696164 -386.03125 330.99609375 C-387.5208898 332.47650569 -389.01047176 333.95697582 -390.5 335.4375 C-391.61955078 336.54448242 -391.61955078 336.54448242 -392.76171875 337.67382812 C-396.74101905 341.6355209 -400.44840067 345.65429307 -404 350 C-405.32955799 351.33709802 -406.66262016 352.67072549 -408 354 C-412.43741875 359.18728076 -416.52131219 364.46353916 -419.89453125 370.40625 C-421 372 -421 372 -424 374 C-425.21284876 377.05429073 -425.21284876 377.05429073 -426 380 C-426.66 380 -427.32 380 -428 380 C-428.81837442 381.41328129 -429.62946219 382.83078346 -430.4375 384.25 C-431.11619141 385.43335938 -431.11619141 385.43335938 -431.80859375 386.640625 C-433.08040518 388.90879102 -433.08040518 388.90879102 -433.47265625 391.234375 C-433.64667969 391.81703125 -433.82070313 392.3996875 -434 393 C-434.99 393.33 -435.98 393.66 -437 394 C-437.72455635 395.64232772 -438.37774395 397.31624835 -439 399 C-440.82241544 402.44822175 -442.8363692 405.7545538 -445 409 C-445 409.99 -445 410.98 -445 412 C-445.66 412 -446.32 412 -447 412 C-449.63326468 418.15122302 -452.23544252 424.24715669 -454.12890625 430.671875 C-455 433 -455 433 -456.84375 436.51953125 C-465.36916202 453.32927181 -469.03717237 473.52539167 -472 492 C-472.16371094 493.02013184 -472.32742188 494.04026367 -472.49609375 495.09130859 C-483.50468923 567.47737288 -466.26582364 644.64947016 -423 704 C-421.45936423 706.06526474 -419.90956116 708.12265576 -418.34765625 710.171875 C-417.06846087 711.90713134 -415.90284245 713.67927465 -414.75 715.5 C-414.1725 716.325 -413.595 717.15 -413 718 C-412.34 718 -411.68 718 -411 718 C-410.835 718.680625 -410.67 719.36125 -410.5 720.0625 C-408.59185581 723.79928238 -406.02198622 725.75819546 -402.77734375 728.3515625 C-401 730 -401 730 -400 733 C-397.63917387 735.55756164 -395.21784113 737.8257271 -392.5 740 C-388.78980387 742.96815691 -385.59123546 746.38126522 -382.3125 749.8125 C-380.28837851 752.22906662 -380.28837851 752.22906662 -378 752 C-378 752.66 -378 753.32 -378 754 C-377.34 754 -376.68 754 -376 754 C-375.773125 754.5775 -375.54625 755.155 -375.3125 755.75 C-373.65151778 758.59739809 -371.68475439 760.12067193 -369 762 C-368.34 762 -367.68 762 -367 762 C-367 762.66 -367 763.32 -367 764 C-365.15643117 765.71356765 -365.15643117 765.71356765 -362.8125 767.4375 C-362.03519531 768.03433594 -361.25789063 768.63117187 -360.45703125 769.24609375 C-358.03960757 771.02155166 -358.03960757 771.02155166 -355.51953125 772.484375 C-352.82623625 774.10452765 -350.3807721 775.91634111 -347.875 777.8125 C-343.39283201 781.0978274 -338.86496438 783.86163899 -333.9453125 786.43359375 C-331.20343892 787.89180503 -328.52686186 789.43688786 -325.85131836 791.01269531 C-319.95388635 794.47372406 -314.01604873 797.41049125 -307.6484375 799.92578125 C-305.425639 800.82735881 -303.36119165 801.80815075 -301.25 802.9375 C-284.80613039 811.2931248 -265.95433363 816.18342623 -248 820 C-246.43846781 820.35530491 -244.87727553 820.71210661 -243.31640625 821.0703125 C-232.38496714 823.59440914 -232.38496714 823.59440914 -221.22265625 824.07421875 C-217.12501055 823.93739051 -213.06386634 824.51579465 -209 825 C-209 825.33 -209 825.66 -209 826 C-174.33810824 826.8745393 -174.33810824 826.8745393 -140 823 C-139.05753418 822.82839355 -138.11506836 822.65678711 -137.14404297 822.47998047 C-107.75047528 817.11170852 -79.40718863 808.06568467 -53 794 C-52.09121094 793.53464844 -51.18242188 793.06929687 -50.24609375 792.58984375 C-36.25989386 785.26577266 -21.76713414 776.60520887 -10 766 C-10 765.34 -10 764.68 -10 764 C-8.9790625 763.690625 -8.9790625 763.690625 -7.9375 763.375 C-4.08360625 761.57104973 -0.92212236 759.0989655 2 756 C2 755.34 2 754.68 2 754 C3.0835376 753.64881104 3.0835376 753.64881104 4.18896484 753.29052734 C7.49958497 751.7706439 9.41778435 749.93899659 11.9765625 747.3515625 C12.894375 746.42859375 13.8121875 745.505625 14.7578125 744.5546875 C15.46405762 743.83297363 15.46405762 743.83297363 16.18457031 743.09667969 C17.62055662 741.62953978 19.06693504 740.17333694 20.515625 738.71875 C27.48899118 732.76666224 27.48899118 732.76666224 31 725 C31.598125 724.773125 32.19625 724.54625 32.8125 724.3125 C35.59832728 722.64100363 36.37537232 720.7943596 38 718 C38.70898438 717.33097656 39.41796875 716.66195313 40.1484375 715.97265625 C44.13542504 712.06663745 47.08143175 707.35980597 50.1875 702.75 C51.18378418 701.27454712 51.18378418 701.27454712 52.20019531 699.76928711 C65.71915762 679.58750128 77.36775771 658.1391742 85 635 C85.3103418 634.06349609 85.62068359 633.12699219 85.94042969 632.16210938 C92.70114917 611.52412359 98.25787849 590.7034958 100 569 C100.05639648 568.3282373 100.11279297 567.65647461 100.17089844 566.96435547 C101.83517915 546.17069441 101.58317187 525.25441643 99.26611328 504.53125 C98.86797656 500.7442027 98.57488813 496.9486207 98.27905273 493.15234375 C98.22547384 491.02203325 98.22547384 491.02203325 97 490 C96.81547667 488.60875265 96.67730342 487.21122736 96.5625 485.8125 C96.17803215 481.94951347 95.27786354 478.67385768 94 475 C93.63239269 472.67182036 93.29758419 470.3381615 93 468 C92.34791033 464.23167414 91.30648484 460.73959746 90.0625 457.125 C88.58518761 452.77335154 87.22479023 448.42808777 86 444 C85.07325251 441.21975752 84.03167981 438.53030147 82.9375 435.8125 C82.57527344 434.91144531 82.21304688 434.01039063 81.83984375 433.08203125 C81.56269531 432.39496094 81.28554688 431.70789063 81 431 C80.34 431 79.68 431 79 431 C79.04125 430.2575 79.0825 429.515 79.125 428.75 C78.98979338 425.77545438 78.43318084 424.5646394 77 422 C76.525625 420.845 76.05125 419.69 75.5625 418.5 C74.20995661 415.11540536 74.20995661 415.11540536 72.4375 412.9375 C70.59974862 410.46053075 69.8682974 407.93885274 69 405 C68.34 405 67.68 405 67 405 C66.87496094 404.42507813 66.74992188 403.85015625 66.62109375 403.2578125 C65.98691142 400.95242014 65.1370025 399.0077861 64.0625 396.875 C63.72347656 396.19179688 63.38445313 395.50859375 63.03515625 394.8046875 C62.01063924 392.83627636 62.01063924 392.83627636 60 391 C59.525625 389.845 59.05125 388.69 58.5625 387.5 C57.28656506 383.80562758 57.28656506 383.80562758 54 382 C53.67 381.01 53.34 380.02 53 379 C52.34 379 51.68 379 51 379 C51 378.34 51 377.68 51 377 C50.34 377 49.68 377 49 377 C48.731875 376.195625 48.46375 375.39125 48.1875 374.5625 C47.795625 373.716875 47.40375 372.87125 47 372 C46.01 371.67 45.02 371.34 44 371 C43.63863243 369.67399006 43.31156761 368.33858676 43 367 C41.91782469 365.20993558 40.76573279 363.46104205 39.5625 361.75 C38.94503906 360.85796875 38.32757812 359.9659375 37.69140625 359.046875 C37.13324219 358.37140625 36.57507813 357.6959375 36 357 C35.34 357 34.68 357 34 357 C33.773125 356.46890625 33.54625 355.9378125 33.3125 355.390625 C31.56630711 352.21005938 29.31938714 349.52001093 27 346.75 C26.54882812 346.19570313 26.09765625 345.64140625 25.6328125 345.0703125 C24.46926971 343.67268418 23.23905262 342.33114437 22 341 C21.34 341 20.68 341 20 341 C19.34 339.68 18.68 338.36 18 337 C16.1901416 338.54859478 15.12125692 339.52007155 14.52938843 341.86265564 C14.45949203 342.91471947 14.45949203 342.91471947 14.38818359 343.98803711 C14.32515045 344.79366592 14.26211731 345.59929474 14.19717407 346.42933655 C14.139841 347.30730392 14.08250793 348.1852713 14.0234375 349.08984375 C13.86967376 351.00407839 13.71160739 352.91797106 13.54980469 354.83154297 C13.46468628 355.8402948 13.37956787 356.84904663 13.29187012 357.8883667 C12.4952974 366.38064474 11.24617137 374.82757835 10.078125 383.27514648 C9.62507103 386.56198467 9.1832897 389.85021097 8.7421875 393.13867188 C7.38076606 403.14705794 5.90969937 413.11458388 3.9609375 423.02734375 C3.80936188 423.80791641 3.65778625 424.58848907 3.50161743 425.39271545 C2.40267801 430.74969053 0.81580215 435.84561623 -1 441 C-1.29003906 441.87011719 -1.58007812 442.74023438 -1.87890625 443.63671875 C-3.25260417 447.7578125 -4.62630208 451.87890625 -6 456 C-10.95 456 -15.9 456 -21 456 C-20.93941406 454.5137915 -20.87882812 453.02758301 -20.81640625 451.49633789 C-20.58932373 445.9033743 -20.36678207 440.31023716 -20.14550781 434.71704102 C-20.04971251 432.31106806 -19.95273823 429.90514171 -19.85449219 427.49926758 C-19.1103019 409.24762107 -18.46967954 391.17520364 -19.875 372.9375 C-19.95363281 371.81279297 -20.03226563 370.68808594 -20.11328125 369.52929688 C-21.143715 355.57088279 -23.11196067 341.71632558 -25.12231445 327.87084961 C-25.33366795 326.40676419 -25.54196719 324.94223483 -25.74731445 323.47729492 C-27.24270227 308.4167482 -27.24270227 308.4167482 -33.25 295 C-36.34733097 292.74739566 -39.47512869 291.47403709 -43 290 C-44.33333333 288.66666667 -45.66666667 287.33333333 -47 286 C-48.66500443 285.65846063 -50.33178677 285.32550502 -52 285 C-52.7425 284.38125 -53.485 283.7625 -54.25 283.125 C-57.34487231 280.73350776 -60.02396158 279.85181845 -63.71875 278.71875 C-68.12945705 277.32907518 -72.13975806 275.57349463 -76 273 C-76 272.67 -76 272.34 -76 272 C-77.5778125 271.566875 -77.5778125 271.566875 -79.1875 271.125 C-82.2333697 270.22621878 -85.07602509 269.21832288 -88 268 C-96.16508418 265.27830527 -104.45615884 263.0511811 -112.77734375 260.8671875 C-114.86854051 260.30446546 -116.94554533 259.68481822 -119 259 C-126.15689097 257.40180198 -133.40153443 256.19064739 -140.625 254.9375 C-141.60984375 254.76412109 -142.5946875 254.59074219 -143.609375 254.41210938 C-144.57617188 254.24388672 -145.54296875 254.07566406 -146.5390625 253.90234375 C-147.39709473 253.75273193 -148.25512695 253.60312012 -149.13916016 253.44897461 C-156.91467054 252.22870122 -164.38830121 251.82688009 -172.2578125 251.796875 C-173.43729462 251.79117493 -174.61677673 251.78547485 -175.83200073 251.77960205 C-178.32825839 251.77018027 -180.82452833 251.76362933 -183.32080078 251.75976562 C-187.06436202 251.75015566 -190.80735083 251.71914437 -194.55078125 251.6875 C-217.79654317 250.66598738 -217.79654317 250.66598738 -240 256 Z " fill="#F9F9F9" transform="translate(697,80)"/>
<path d="M0 0 C0.93667511 -0.00358521 1.87335022 -0.00717041 2.83840942 -0.01086426 C19.38618215 -0.04490758 35.43973767 1.39594677 51.75 4.1875 C52.76674805 4.36112061 53.78349609 4.53474121 54.83105469 4.71362305 C70.73936083 7.49092515 85.53458358 11.70958219 100.6875 17.3125 C97.6875 19.3125 97.6875 19.3125 95.734375 18.9921875 C94.97640625 18.72664063 94.2184375 18.46109375 93.4375 18.1875 C88.90694007 16.68846688 84.36524638 15.39201022 79.75 14.1875 C72.98893541 12.41297847 72.98893541 12.41297847 69.6875 11.3125 C62.53060903 9.71430198 55.28596557 8.50314739 48.0625 7.25 C47.07765625 7.07662109 46.0928125 6.90324219 45.078125 6.72460938 C44.11132812 6.55638672 43.14453125 6.38816406 42.1484375 6.21484375 C41.29040527 6.06523193 40.43237305 5.91562012 39.54833984 5.76147461 C31.77282946 4.54120122 24.29919879 4.13938009 16.4296875 4.109375 C15.25020538 4.10367493 14.07072327 4.09797485 12.85549927 4.09210205 C10.35924161 4.08268027 7.86297167 4.07612933 5.36669922 4.07226562 C1.62313798 4.06265566 -2.11985083 4.03164437 -5.86328125 4 C-29.10904317 2.97848738 -29.10904317 2.97848738 -51.3125 8.3125 C-53.32931117 8.63079158 -55.35113768 8.91765169 -57.375 9.1875 C-62.28261715 9.90793386 -66.71848034 10.95020131 -71.3671875 12.6484375 C-73.97224656 13.53771469 -76.58801957 13.96320764 -79.3125 14.3125 C-79.3125 14.6425 -79.3125 14.9725 -79.3125 15.3125 C-79.88097656 15.42207031 -80.44945312 15.53164063 -81.03515625 15.64453125 C-84.88264689 16.43458358 -88.43915825 17.25288653 -92 18.9375 C-95.40706961 20.35175531 -97.66920854 20.5790823 -101.3125 20.3125 C-101.3125 20.9725 -101.3125 21.6325 -101.3125 22.3125 C-110.72252278 26.90475513 -110.72252278 26.90475513 -115.3125 26.3125 C-115.3125 26.9725 -115.3125 27.6325 -115.3125 28.3125 C-116.6325 28.3125 -117.9525 28.3125 -119.3125 28.3125 C-119.3125 28.9725 -119.3125 29.6325 -119.3125 30.3125 C-120.31216797 30.74949219 -120.31216797 30.74949219 -121.33203125 31.1953125 C-136.90689237 38.12231367 -151.2574699 46.9130492 -165.0234375 56.91796875 C-165.55678711 57.3051709 -166.09013672 57.69237305 -166.63964844 58.09130859 C-167.83454657 58.96359121 -169.02480571 59.84224304 -170.21191406 60.72509766 C-175.09522292 64.3125 -175.09522292 64.3125 -177.3125 64.3125 C-177.3125 64.9725 -177.3125 65.6325 -177.3125 66.3125 C-179.2109375 68.0390625 -179.2109375 68.0390625 -181.6875 69.9375 C-182.49960937 70.56914062 -183.31171875 71.20078125 -184.1484375 71.8515625 C-186.3125 73.3125 -186.3125 73.3125 -188.3125 73.3125 C-188.66634766 74.17294922 -188.66634766 74.17294922 -189.02734375 75.05078125 C-190.60082089 77.81990972 -192.46053411 79.42559973 -194.875 81.5 C-201.23566062 87.08967145 -207.33211511 92.85517243 -212.75 99.375 C-213.595625 100.344375 -214.44125 101.31375 -215.3125 102.3125 C-215.9725 102.3125 -216.6325 102.3125 -217.3125 102.3125 C-217.55226563 103.02535156 -217.79203125 103.73820312 -218.0390625 104.47265625 C-219.50649094 107.7451117 -221.36099346 110.02543669 -223.6875 112.75 C-227.42556262 117.19052211 -227.42556262 117.19052211 -230.75 121.9375 C-232.3125 124.3125 -232.3125 124.3125 -234.3125 125.3125 C-235.36058041 127.28772846 -236.3645411 129.28731509 -237.3125 131.3125 C-237.9725 131.3125 -238.6325 131.3125 -239.3125 131.3125 C-239.56 132.158125 -239.8075 133.00375 -240.0625 133.875 C-241.75012522 138.51596934 -243.77985992 142.77985992 -247.3125 146.3125 C-250.6515206 151.78667662 -253.48893031 157.56078397 -256.3125 163.3125 C-256.9725 163.3125 -257.6325 163.3125 -258.3125 163.3125 C-258.415625 164.16585937 -258.51875 165.01921875 -258.625 165.8984375 C-259.37404969 169.61815016 -260.65328335 172.53131966 -262.3125 175.9375 C-263.99547567 179.40863732 -265.43384987 182.56667574 -266.3125 186.3125 C-267.00473984 187.90293534 -267.71577716 189.48522491 -268.4375 191.0625 C-275.41573773 207.66868313 -279.6178232 225.54447483 -282.3125 243.3125 C-282.46203125 244.2730127 -282.6115625 245.23352539 -282.765625 246.22314453 C-288.02612024 281.40837511 -286.92048925 318.16996449 -278.85083008 352.80444336 C-278.53021606 354.1986853 -278.53021606 354.1986853 -278.203125 355.62109375 C-277.90970215 356.84010376 -277.90970215 356.84010376 -277.61035156 358.08374023 C-277.29198388 360.46601777 -277.57389288 362.04378191 -278.3125 364.3125 C-285.02432026 340.22321287 -287.79087022 317.16538291 -287.75 292.1875 C-287.75004028 291.16481018 -287.75008057 290.14212036 -287.75012207 289.08843994 C-287.64666018 243.8692395 -278.87507529 199.33108278 -257.31005859 159.18994141 C-256.25647744 157.20706351 -255.24525415 155.20613589 -254.23828125 153.19921875 C-243.52636492 132.06726392 -229.49936816 112.5784927 -213.3125 95.3125 C-212.16053015 93.98446489 -211.01421992 92.65148834 -209.875 91.3125 C-202.93187339 83.36123791 -195.431953 76.17551416 -187.16796875 69.61328125 C-184.66267791 67.59465429 -182.24241136 65.50484727 -179.82861328 63.37866211 C-171.56000909 56.15738035 -162.58266603 50.16712934 -153.3125 44.3125 C-152.64299316 43.88614258 -151.97348633 43.45978516 -151.28369141 43.02050781 C-119.87842918 23.20462807 -84.54710431 9.92439395 -47.97949219 3.76660156 C-46.26681212 3.47498815 -44.55621264 3.17071486 -42.84863281 2.85058594 C-28.6202431 0.20808917 -14.42501498 0.02224019 0 0 Z M-13.3125 1.3125 C-13.3125 1.6425 -13.3125 1.9725 -13.3125 2.3125 C-10.3425 2.3125 -7.3725 2.3125 -4.3125 2.3125 C-4.3125 1.9825 -4.3125 1.6525 -4.3125 1.3125 C-7.2825 1.3125 -10.2525 1.3125 -13.3125 1.3125 Z M12.6875 1.3125 C12.6875 1.6425 12.6875 1.9725 12.6875 2.3125 C14.3375 2.3125 15.9875 2.3125 17.6875 2.3125 C17.6875 1.9825 17.6875 1.6525 17.6875 1.3125 C16.0375 1.3125 14.3875 1.3125 12.6875 1.3125 Z " fill="#111111" transform="translate(508.3125,328.6875)"/>
<path d="M0 0 C0.33 0 0.66 0 1 0 C1.48283996 2.95777435 1.96133765 5.91614929 2.4375 8.875 C2.57220703 9.69742188 2.70691406 10.51984375 2.84570312 11.3671875 C3.04389648 12.6046875 3.04389648 12.6046875 3.24609375 13.8671875 C3.36654053 14.61081543 3.4869873 15.35444336 3.61108398 16.12060547 C4.83295973 25.16693475 5.18570141 34.08326424 5.23828125 43.2109375 C5.24235678 43.88393513 5.2464323 44.55693275 5.25063133 45.25032425 C5.27138389 48.8293144 5.28571841 52.40826773 5.29516602 55.98730469 C5.30391968 58.88042964 5.3245519 61.7730575 5.35668945 64.66601562 C5.5686017 84.17972565 4.40570356 102.71937267 1 122 C0.83977356 122.93383011 0.67954712 123.86766022 0.51446533 124.82978821 C-3.61473748 148.80813897 -11.24649523 171.79334547 -20.09545898 194.39819336 C-21.06774878 196.98282962 -21.06774878 196.98282962 -21.50024414 199.71313477 C-22 202 -22 202 -24 204 C-24.7900735 205.43701774 -25.5338571 206.89974563 -26.25 208.375 C-26.69085937 209.27347656 -27.13171875 210.17195312 -27.5859375 211.09765625 C-28.05257812 212.05542969 -28.51921875 213.01320313 -29 214 C-40.04689379 236.42946668 -40.04689379 236.42946668 -46.5390625 245.82421875 C-48.10972241 248.16341012 -49.52283078 250.56362523 -50.9375 253 C-53.39888331 257.14918901 -56.13869705 260.8975437 -59.15625 264.65625 C-61.15161304 267.19272844 -63.0105148 269.80354472 -64.875 272.4375 C-68.22283346 277.07544269 -71.8541837 281.28743339 -75.734375 285.484375 C-77.99814347 287.99793861 -80.09179923 290.59544569 -82.1875 293.25 C-90.12497665 303.05347993 -99.36078126 311.88276317 -109 320 C-110.29285389 321.14449361 -111.58448211 322.29037299 -112.875 323.4375 C-119.91979326 329.58295795 -127.2882616 335.27073405 -134.8125 340.8125 C-135.44679932 341.28075195 -136.08109863 341.74900391 -136.73461914 342.23144531 C-140.07021639 344.66999744 -143.43066338 346.91033761 -147 349 C-148.38026748 349.92972734 -149.75531062 350.86725809 -151.125 351.8125 C-158.10841465 356.47963355 -165.43464201 360.32956599 -173.0703125 363.81640625 C-177.48820137 365.84220956 -181.89523438 367.88737222 -186.2890625 369.96484375 C-203.70921156 378.1647985 -220.94711377 384.88238456 -239.375 390.4375 C-240.54732178 390.79231445 -241.71964355 391.14712891 -242.92749023 391.51269531 C-244.58373413 391.99947754 -244.58373413 391.99947754 -246.2734375 392.49609375 C-247.25747559 392.78669678 -248.24151367 393.0772998 -249.25537109 393.37670898 C-251.93960932 393.98628559 -254.25888999 394.12027893 -257 394 C-253.45788682 392.03642516 -249.73058507 390.92446602 -245.8671875 389.78515625 C-244.41922448 389.34861863 -242.97156408 388.91107632 -241.52416992 388.47265625 C-240.76590912 388.24336426 -240.00764832 388.01407227 -239.22640991 387.77783203 C-222.99281707 382.83934433 -207.41125268 377.15366212 -192 370 C-190.58920166 369.3512793 -190.58920166 369.3512793 -189.14990234 368.68945312 C-158.53436177 354.45961948 -131.25288473 334.83429138 -106.37890625 312.15625 C-104.81932007 310.74263494 -103.24413148 309.34600394 -101.65234375 307.96875 C-89.95924821 297.77769437 -79.76780248 286.19720814 -70.41699219 273.85400391 C-68.91572616 271.88973543 -67.38628126 269.9499426 -65.8515625 268.01171875 C-40.26047204 235.48604645 -21.78386813 197.58415155 -10 158 C-9.74331543 157.16758789 -9.48663086 156.33517578 -9.22216797 155.47753906 C-5.43419988 143.1271578 -2.86833671 130.65263161 -0.6875 117.9375 C-0.49404999 116.82178619 -0.49404999 116.82178619 -0.29669189 115.68353271 C0.07737665 113.50776172 0.4411895 111.33055038 0.80078125 109.15234375 C1.00872314 107.89413818 1.21666504 106.63593262 1.4309082 105.33959961 C2.87883625 95.20349126 3.16486638 85.00518661 3.203125 74.78125 C3.20882507 73.56207886 3.21452515 72.34290771 3.22039795 71.08679199 C3.22977921 68.52206267 3.23635428 65.95732167 3.24023438 63.39257812 C3.24990583 59.53753802 3.28098307 55.6830398 3.3125 51.828125 C3.36658228 38.80058445 2.90037356 26.27873659 0.64746094 13.43554688 C-0.11299453 8.91794497 -0.10817863 4.57538665 0 0 Z " fill="#161616" transform="translate(847,557)"/>
<path d="M0 0 C0 3.99833488 -1.35814212 4.81158018 -4.0625 7.6875 C-5.30386719 9.02361328 -5.30386719 9.02361328 -6.5703125 10.38671875 C-7.37210938 11.24910156 -8.17390625 12.11148438 -9 13 C-10.1514903 14.32845093 -11.29787837 15.66135354 -12.4375 17 C-19.06139051 24.58987455 -26.34647348 31.46650175 -34 38 C-35.29225535 39.14516938 -36.58391241 40.29101422 -37.875 41.4375 C-44.91979326 47.58295795 -52.2882616 53.27073405 -59.8125 58.8125 C-60.44679932 59.28075195 -61.08109863 59.74900391 -61.73461914 60.23144531 C-65.07021639 62.66999744 -68.43066338 64.91033761 -72 67 C-73.38026748 67.92972734 -74.75531062 68.86725809 -76.125 69.8125 C-83.10841465 74.47963355 -90.43464201 78.32956599 -98.0703125 81.81640625 C-102.48820137 83.84220956 -106.89523438 85.88737222 -111.2890625 87.96484375 C-128.70921156 96.1647985 -145.94711377 102.88238456 -164.375 108.4375 C-165.54732178 108.79231445 -166.71964355 109.14712891 -167.92749023 109.51269531 C-169.58373413 109.99947754 -169.58373413 109.99947754 -171.2734375 110.49609375 C-172.74949463 110.93199829 -172.74949463 110.93199829 -174.25537109 111.37670898 C-176.93960932 111.98628559 -179.25888999 112.12027893 -182 112 C-178.45788682 110.03642516 -174.73058507 108.92446602 -170.8671875 107.78515625 C-169.41922448 107.34861863 -167.97156408 106.91107632 -166.52416992 106.47265625 C-165.38677872 106.12871826 -165.38677872 106.12871826 -164.22640991 105.77783203 C-147.99281707 100.83934433 -132.41125268 95.15366212 -117 88 C-116.05946777 87.56751953 -115.11893555 87.13503906 -114.14990234 86.68945312 C-83.53531715 72.46006354 -56.25755674 52.83536523 -31.3828125 30.16015625 C-29.80972743 28.73406437 -28.22129608 27.32469775 -26.6171875 25.93359375 C-20.8960135 20.93906403 -15.71251604 15.60243665 -10.64135742 9.96020508 C-7.31459271 6.28741111 -3.87818784 3.08861666 0 0 Z " fill="#0D0D0D" transform="translate(772,839)"/>
<path d="M0 0 C0.33 0 0.66 0 1 0 C1.21437053 8.97991668 0.63467683 17.58339305 -0.609375 26.47265625 C-0.8614975 28.33826454 -0.8614975 28.33826454 -1.11871338 30.24156189 C-1.56447679 33.52098405 -2.01832079 36.79915896 -2.4753418 40.07702637 C-2.92830565 43.35145173 -3.36488316 46.62808216 -3.8046875 49.90429688 C-5.32457223 61.08211301 -6.89594438 72.23806891 -9.078125 83.30859375 C-9.22731384 84.07204605 -9.37650269 84.83549835 -9.5302124 85.62208557 C-10.48689798 90.23660858 -11.80867236 94.61159503 -13.41131592 99.0438385 C-14.14408608 101.13831918 -14.14408608 101.13831918 -14 104 C-14.66 104 -15.32 104 -16 104 C-16.12117187 104.60328125 -16.24234375 105.2065625 -16.3671875 105.828125 C-16.53476562 106.62734375 -16.70234375 107.4265625 -16.875 108.25 C-17.11863281 109.43335938 -17.11863281 109.43335938 -17.3671875 110.640625 C-17.99150075 112.96831144 -18.84838542 114.89031952 -20 117 C-22.10353495 117.0810206 -24.20795952 117.13919907 -26.3125 117.1875 C-27.48425781 117.22230469 -28.65601563 117.25710938 -29.86328125 117.29296875 C-33 117 -33 117 -34.6852417 115.78488159 C-36.43032759 113.41579849 -36.30490533 112.06975833 -36.17285156 109.14892578 C-36.13581116 108.16425323 -36.09877075 107.17958069 -36.06060791 106.16506958 C-36.00451355 105.10254974 -35.94841919 104.04002991 -35.890625 102.9453125 C-35.84435974 101.85161346 -35.79809448 100.75791443 -35.75042725 99.631073 C-35.64976486 97.31573486 -35.54167301 95.00070967 -35.42675781 92.68603516 C-35.25107592 89.14667586 -35.09609784 85.60690523 -34.9453125 82.06640625 C-34.84495844 79.81765408 -34.74343444 77.56895375 -34.640625 75.3203125 C-34.59262756 74.26184113 -34.54463013 73.20336975 -34.49517822 72.11282349 C-34.44552917 71.12184662 -34.39588013 70.13086975 -34.34472656 69.10986328 C-34.28118988 67.80772385 -34.28118988 67.80772385 -34.21636963 66.47927856 C-33.99376957 63.9286084 -33.54834916 61.49918925 -33 59 C-32.67 59 -32.34 59 -32 59 C-31.97471097 66.65380144 -31.95715896 74.30759217 -31.94506836 81.96142578 C-31.9400297 84.56689863 -31.9331987 87.17236863 -31.92456055 89.77783203 C-31.91247456 93.51595764 -31.90676712 97.25404597 -31.90234375 100.9921875 C-31.89718246 102.16304901 -31.89202118 103.33391052 -31.88670349 104.54025269 C-31.88662796 105.62122223 -31.88655243 106.70219177 -31.88647461 107.81591797 C-31.884254 108.77078094 -31.88203339 109.72564392 -31.87974548 110.70944214 C-32 113 -32 113 -33 115 C-29.04 115 -25.08 115 -21 115 C-20.5661499 113.54392334 -20.1322998 112.08784668 -19.68530273 110.58764648 C-18.65863268 107.16078273 -17.60780528 103.74402761 -16.51977539 100.33618164 C-12.87667977 88.80037936 -10.32073708 77.37831588 -8.4375 65.4375 C-8.29480682 64.56232727 -8.15211365 63.68715454 -8.00509644 62.78546143 C-4.60848697 41.94889735 -2.2257505 20.98921769 0 0 Z " fill="#161616" transform="translate(711,420)"/>
<path d="M0 0 C2.61895896 3.02187573 4.72885998 6.15276674 6.73828125 9.59375 C17.61688616 27.86065788 30.87420041 44.67501672 45.375 60.1875 C48.02341415 63.02508659 50.6049478 65.91500241 53.1875 68.8125 C56.5710606 72.53654469 60.02604103 75.95548712 63.875 79.19140625 C66.4613816 81.39268323 68.94259355 83.69567668 71.4375 86 C76.10674421 90.26492418 80.9317398 94.22070474 86 98 C84.515 98.495 84.515 98.495 83 99 C83 98.34 83 97.68 83 97 C82.25129639 96.89945313 81.50259277 96.79890625 80.73120117 96.6953125 C77.6944381 95.92220968 76.51882873 95.03817983 74.30078125 92.875 C73.64916016 92.25109375 72.99753906 91.6271875 72.32617188 90.984375 C71.66166016 90.32953125 70.99714844 89.6746875 70.3125 89 C68.97701096 87.70652348 67.63985029 86.41476998 66.30078125 85.125 C65.42160034 84.26261719 65.42160034 84.26261719 64.5246582 83.3828125 C63.03078761 81.90305046 63.03078761 81.90305046 61 81 C61 80.34 61 79.68 61 79 C60.41347656 78.74089844 59.82695312 78.48179687 59.22265625 78.21484375 C56.84402842 76.91475016 55.31081607 75.51125162 53.4375 73.5625 C52.56931641 72.66724609 52.56931641 72.66724609 51.68359375 71.75390625 C51.12800781 71.17511719 50.57242188 70.59632813 50 70 C49.43410156 69.47277344 48.86820312 68.94554687 48.28515625 68.40234375 C47 67 47 67 47 65 C46.42765625 64.7628125 45.8553125 64.525625 45.265625 64.28125 C42.5120708 62.72406762 40.83204366 60.87507203 38.75 58.5 C38.04359375 57.7059375 37.3371875 56.911875 36.609375 56.09375 C35 54 35 54 35 52 C34.34 52 33.68 52 33 52 C31.73828125 50.6015625 31.73828125 50.6015625 30.3125 48.625 C29.78140625 47.89410156 29.2503125 47.16320312 28.703125 46.41015625 C26.37539377 43.11609623 24.07585925 39.80277077 21.77734375 36.48828125 C20.1268003 34.17752041 18.40301295 31.96327709 16.625 29.75 C9.65972295 20.88652808 3.69830948 11.2465644 -1 1 C-0.67 0.67 -0.34 0.34 0 0 Z " fill="#0F0F0F" transform="translate(213,789)"/>
<path d="M0 0 C38.15305183 -0.41366945 38.15305183 -0.41366945 53 2 C54.93489475 2.29427799 56.86979067 2.58854824 58.8046875 2.8828125 C77.99495234 5.8772843 95.77815504 10.26232015 114 17 C111 19 111 19 109.046875 18.6796875 C108.28890625 18.41414063 107.5309375 18.14859375 106.75 17.875 C102.21944007 16.37596688 97.67774638 15.07951022 93.0625 13.875 C86.30143541 12.10047847 86.30143541 12.10047847 83 11 C75.84310903 9.40180198 68.59846557 8.19064739 61.375 6.9375 C60.39015625 6.76412109 59.4053125 6.59074219 58.390625 6.41210938 C57.42382812 6.24388672 56.45703125 6.07566406 55.4609375 5.90234375 C54.60290527 5.75273193 53.74487305 5.60312012 52.86083984 5.44897461 C46.39871131 4.4348208 40.09422271 3.83430835 33.5625 3.68359375 C32.41418701 3.6524221 32.41418701 3.6524221 31.24267578 3.62062073 C28.8285302 3.55591864 26.41428819 3.49661459 24 3.4375 C22.35025097 3.39423905 20.70051122 3.35062252 19.05078125 3.30664062 C15.03394967 3.20032031 11.01702241 3.09883655 7 3 C7 2.67 7 2.34 7 2 C4.69 1.67 2.38 1.34 0 1 C0 0.67 0 0.34 0 0 Z M26 1 C26 1.33 26 1.66 26 2 C27.65 2 29.3 2 31 2 C31 1.67 31 1.34 31 1 C29.35 1 27.7 1 26 1 Z " fill="#0B0B0B" transform="translate(495,329)"/>
<path d="M0 0 C7.34524195 0.59483059 14.36038236 1.79202336 21.53320312 3.45117188 C39.17552002 7.2388693 57.28697871 7.32376684 75.24658203 7.26074219 C78.86377802 7.25003322 82.4804753 7.26069922 86.09765625 7.2734375 C105.64150484 7.28690971 124.97410478 6.51833834 144.125 2.375 C146.29341415 1.92037371 148.46265896 1.46968694 150.6328125 1.0234375 C151.54949707 0.82669434 152.46618164 0.62995117 153.41064453 0.42724609 C155.99100952 0.00148344 158.3900517 -0.07712683 161 0 C157.02923778 2.64717481 152.97147772 3.06614869 148.36132812 3.85546875 C144.25673345 4.54082992 144.25673345 4.54082992 141 7 C139.13710022 7.16455078 139.13710022 7.16455078 136.91040039 7.0703125 C132.3404581 6.97000323 127.9664347 7.33173161 123.43359375 7.875 C121.81072198 8.05877225 120.18775241 8.24168246 118.56469727 8.42382812 C117.72818634 8.51865479 116.89167542 8.61348145 116.02981567 8.71118164 C91.06083794 11.49305703 67.66265673 11.16215206 42.70336914 8.42382812 C41.85907852 8.33186157 41.0147879 8.23989502 40.14491272 8.1451416 C38.56024008 7.97093968 36.97599614 7.79277004 35.39231873 7.60974121 C31.77451056 7.20961682 28.28580309 6.97905255 24.64453125 7.0703125 C21 7 21 7 18 5 C15.98072023 4.36894696 15.98072023 4.36894696 13.76953125 3.9296875 C12.96708984 3.75566406 12.16464844 3.58164062 11.33789062 3.40234375 C10.50451172 3.22832031 9.67113281 3.05429687 8.8125 2.875 C7.96751953 2.69324219 7.12253906 2.51148438 6.25195312 2.32421875 C4.1691928 1.87707247 2.08474994 1.43777624 0 1 C0 0.67 0 0.34 0 0 Z " fill="#242424" transform="translate(429,951)"/>
<path d="M0 0 C14.20139241 11.29656214 34.19534865 31.58604595 40 49 C39.01 49.495 39.01 49.495 38 50 C38 49.01 38 48.02 38 47 C37.34 47 36.68 47 36 47 C36 46.34 36 45.68 36 45 C35.34 45 34.68 45 34 45 C32.98133771 43.34467377 31.98189187 41.67739862 31 40 C30.34 39.67 29.68 39.34 29 39 C28.01399349 37.29092205 27.03176095 35.57929543 26.0859375 33.84765625 C24.91896662 31.76139443 24.91896662 31.76139443 22.75 29.1875 C21 27 21 27 21 25 C20.34 25 19.68 25 19 25 C17.54340023 23.38617052 16.15951049 21.70636784 14.8125 20 C10.98939529 15.21802599 7.06172824 10.58024673 3 6 C2.67 8.97 2.34 11.94 2 15 C1.67 15 1.34 15 1 15 C0.15318867 9.91913204 -0.09038099 5.15171623 0 0 Z " fill="#0C0C0C" transform="translate(712,412)"/>
<path d="M0 0 C0.33 0 0.66 0 1 0 C1.02528903 7.65380144 1.04284104 15.30759217 1.05493164 22.96142578 C1.0599703 25.56689863 1.0668013 28.17236863 1.07543945 30.77783203 C1.08752544 34.51595764 1.09323288 38.25404597 1.09765625 41.9921875 C1.10281754 43.16304901 1.10797882 44.33391052 1.11329651 45.54025269 C1.11337204 46.62122223 1.11344757 47.70219177 1.11352539 48.81591797 C1.115746 49.77078094 1.11796661 50.72564392 1.12025452 51.70944214 C1 54 1 54 0 56 C4.62 55.67 9.24 55.34 14 55 C13.67 55.99 13.34 56.98 13 58 C10.89646505 58.0810206 8.79204048 58.13919907 6.6875 58.1875 C5.51574219 58.22230469 4.34398437 58.25710938 3.13671875 58.29296875 C0 58 0 58 -1.6852417 56.78488159 C-3.43032759 54.41579849 -3.30490533 53.06975833 -3.17285156 50.14892578 C-3.13581116 49.16425323 -3.09877075 48.17958069 -3.06060791 47.16506958 C-3.00451355 46.10254974 -2.94841919 45.04002991 -2.890625 43.9453125 C-2.84435974 42.85161346 -2.79809448 41.75791443 -2.75042725 40.631073 C-2.64976486 38.31573486 -2.54167301 36.00070967 -2.42675781 33.68603516 C-2.25107592 30.14667586 -2.09609784 26.60690523 -1.9453125 23.06640625 C-1.84495844 20.81765408 -1.74343444 18.56895375 -1.640625 16.3203125 C-1.59262756 15.26184113 -1.54463013 14.20336975 -1.49517822 13.11282349 C-1.44552917 12.12184662 -1.39588013 11.13086975 -1.34472656 10.10986328 C-1.28118988 8.80772385 -1.28118988 8.80772385 -1.21636963 7.47927856 C-0.99376957 4.9286084 -0.54834916 2.49918925 0 0 Z " fill="#212121" transform="translate(678,479)"/>
<path d="M0 0 C1 2 1 2 0.36669922 4.49926758 C0.01623535 5.53720459 -0.33422852 6.5751416 -0.6953125 7.64453125 C-1.08203125 8.79759766 -1.46875 9.95066406 -1.8671875 11.13867188 C-2.28226563 12.35103516 -2.69734375 13.56339844 -3.125 14.8125 C-3.516875 15.98232422 -3.90875 17.15214844 -4.3125 18.35742188 C-6.68333321 25.37307375 -9.22811934 32.29143742 -11.97998047 39.16674805 C-12.92155497 41.78210757 -13.53889519 44.26379776 -14 47 C-15.98 47.495 -15.98 47.495 -18 48 C-15.95308227 41.58999171 -13.60275208 35.35420783 -11.0625 29.125 C-5.96424819 16.66742312 -5.96424819 16.66742312 -1.8125 3.875 C-1 1 -1 1 0 0 Z " fill="#161616" transform="translate(839,712)"/>
<path d="M0 0 C10.23 0 20.46 0 31 0 C31 0.99 31 1.98 31 3 C23.08 3 15.16 3 7 3 C7 2.67 7 2.34 7 2 C4.69 1.67 2.38 1.34 0 1 C0 0.67 0 0.34 0 0 Z " fill="#000000" transform="translate(495,329)"/>
<path d="M0 0 C0.66 0.33 1.32 0.66 2 1 C-3.3401277 7.31858117 -9.06097248 13.18156743 -14.9375 19 C-15.81212891 19.87011719 -16.68675781 20.74023438 -17.58789062 21.63671875 C-19.72297449 23.76013549 -21.86037205 25.88116378 -24 28 C-24.66 27.67 -25.32 27.34 -26 27 C-24.11192137 24.30274481 -22.80175356 22.86783571 -20 21 C-18.80767387 18.94996045 -18.80767387 18.94996045 -18 17 C-17.01 17 -16.02 17 -15 17 C-14.6596875 15.8553125 -14.6596875 15.8553125 -14.3125 14.6875 C-12.71982185 11.42630188 -11.09831569 10.74776782 -8 9 C-7.67 8.01 -7.34 7.02 -7 6 C-5.66666667 5.33333333 -4.33333333 4.66666667 -3 4 C-1.26574227 1.96682993 -1.26574227 1.96682993 0 0 Z " fill="#9C9C9C" transform="translate(281,361)"/>
<path d="M0 0 C0.66 0.33 1.32 0.66 2 1 C-1.41157624 4.71886895 -4.37420175 6.94262451 -9 8.9375 C-14.35004574 11.27097885 -14.35004574 11.27097885 -19.6328125 13.75 C-20.78523437 14.306875 -21.93765625 14.86375 -23.125 15.4375 C-24.17945313 15.95183594 -25.23390625 16.46617187 -26.3203125 16.99609375 C-29 18 -29 18 -32 17 C-31.24380371 16.62713867 -30.48760742 16.25427734 -29.70849609 15.87011719 C-26.8777481 14.47188477 -24.04887874 13.06993784 -21.22119141 11.66552734 C-20.00186856 11.06086447 -18.7818285 10.45764549 -17.56103516 9.85595703 C-15.79657694 8.98599112 -14.03498159 8.11022653 -12.2734375 7.234375 C-11.21560059 6.71069336 -10.15776367 6.18701172 -9.06787109 5.64746094 C-5.88013624 3.93563261 -2.97635072 2.05184859 0 0 Z " fill="#0F0F0F" transform="translate(683,912)"/>
<path d="M0 0 C3.59680235 0.38934654 6.70172413 1.58259887 10.01171875 2.99609375 C10.93404297 3.38990234 11.85636719 3.78371094 12.80664062 4.18945312 C13.75732422 4.60130859 14.70800781 5.01316406 15.6875 5.4375 C16.64978516 5.84548828 17.61207031 6.25347656 18.60351562 6.67382812 C19.98120117 7.26647461 19.98120117 7.26647461 21.38671875 7.87109375 C22.22420654 8.23130615 23.06169434 8.59151855 23.92456055 8.96264648 C26 10 26 10 28 12 C24.36003804 13.21332065 23.55851885 12.66422619 20.125 11.1875 C18.86042969 10.65189453 18.86042969 10.65189453 17.5703125 10.10546875 C16.72210937 9.74066406 15.87390625 9.37585938 15 9 C14.11441406 8.65839844 13.22882812 8.31679688 12.31640625 7.96484375 C9.87215881 6.9467508 8.0986938 5.59211254 6 4 C5.34 4 4.68 4 4 4 C4 3.34 4 2.68 4 2 C2.02 2 0.04 2 -2 2 C-1.34 1.34 -0.68 0.68 0 0 Z " fill="#080808" transform="translate(609,347)"/>
<path d="M0 0 C0 0.66 0 1.32 0 2 C2.31 2 4.62 2 7 2 C7 2.33 7 2.66 7 3 C3.58340509 3.05816623 0.16693795 3.09365195 -3.25 3.125 C-4.70212891 3.15013672 -4.70212891 3.15013672 -6.18359375 3.17578125 C-7.58544922 3.18544922 -7.58544922 3.18544922 -9.015625 3.1953125 C-9.87446289 3.20578613 -10.73330078 3.21625977 -11.61816406 3.22705078 C-14.17903596 2.98293323 -15.79511029 2.28990512 -18 1 C-11.93303301 0.22959149 -6.11485027 -0.09706112 0 0 Z " fill="#1C1C1C" transform="translate(495,329)"/>
<path d="M0 0 C-2.29917197 2.8201666 -3.55289494 3.90395521 -7.1640625 4.6796875 C-8.30617188 4.74414062 -9.44828125 4.80859375 -10.625 4.875 C-11.77226562 4.95492188 -12.91953125 5.03484375 -14.1015625 5.1171875 C-17 5 -17 5 -19 3 C-16.77228658 2.49356447 -14.54275924 1.9951038 -12.3125 1.5 C-10.45044922 1.08234375 -10.45044922 1.08234375 -8.55078125 0.65625 C-5.57601782 0.10645874 -3.00631398 -0.13795705 0 0 Z " fill="#141414" transform="translate(461,333)"/>
<path d="M0 0 C2.65437405 1.26398764 4.52088771 2.19390687 6.625 4.25 C7.234375 7.38671875 7.234375 7.38671875 7.375 10.9375 C7.43171875 12.11699219 7.4884375 13.29648437 7.546875 14.51171875 C7.58554687 15.86716797 7.58554687 15.86716797 7.625 17.25 C6.25891622 14.67087917 5.44257092 12.5567695 4.6875 9.6875 C3.67956228 6.42652503 3.15214345 5.33764024 0.625 3.25 C0.295 2.59 -0.035 1.93 -0.375 1.25 C-2.39963255 0.59786708 -2.39963255 0.59786708 -4.375 0.25 C-2.375 -0.75 -2.375 -0.75 0 0 Z " fill="#1E1E1E" transform="translate(661.375,371.75)"/>
<path d="M0 0 C0 0.66 0 1.32 0 2 C-5.10334017 3.905247 -9.46342706 5.42589023 -15 5 C-11.42563486 0.374351 -5.53642205 -0.33554073 0 0 Z " fill="#080808" transform="translate(444,337)"/>
<path d="M0 0 C5.61 0.33 11.22 0.66 17 1 C12.17857491 3.41071254 10.65479039 4.1150362 5.375 3.5625 C4.37210938 3.46066406 3.36921875 3.35882813 2.3359375 3.25390625 C1.56507813 3.17011719 0.79421875 3.08632813 0 3 C0 2.01 0 1.02 0 0 Z " fill="#1A1A1A" transform="translate(526,329)"/>
<path d="M0 0 C3.40053502 1.58691634 6.5779386 3.40981682 9.8125 5.3125 C8.8225 5.9725 7.8325 6.6325 6.8125 7.3125 C2.95591602 5.16171278 -0.73069097 3.07794722 -4.1875 0.3125 C-2.1875 -0.6875 -2.1875 -0.6875 0 0 Z " fill="#0C0C0C" transform="translate(649.1875,364.6875)"/>
<path d="M0 0 C0.66 0.33 1.32 0.66 2 1 C1.20890398 2.27118864 0.41709922 3.54193623 -0.375 4.8125 C-0.81585938 5.52019531 -1.25671875 6.22789062 -1.7109375 6.95703125 C-2.78188476 8.65432039 -3.88676239 10.33014358 -5 12 C-5.66 11.67 -6.32 11.34 -7 11 C-6.21572648 9.35063087 -5.42234741 7.70558873 -4.625 6.0625 C-4.18414062 5.14597656 -3.74328125 4.22945313 -3.2890625 3.28515625 C-2 1 -2 1 0 0 Z " fill="#060606" transform="translate(258,477)"/>
<path d="M0 0 C1.51953125 1.11328125 1.51953125 1.11328125 3 3 C3.07421875 5.91796875 3.07421875 5.91796875 2.6875 9.1875 C2.56761719 10.27417969 2.44773437 11.36085938 2.32421875 12.48046875 C2.21722656 13.31191406 2.11023438 14.14335937 2 15 C1.67 15 1.34 15 1 15 C0.15318867 9.91913204 -0.09038099 5.15171623 0 0 Z " fill="#030303" transform="translate(712,412)"/>
<path d="M0 0 C7.42857143 -0.28571429 7.42857143 -0.28571429 11 2 C10.34 2 9.68 2 9 2 C8.67 2.66 8.34 3.32 8 4 C5.64828869 3.40138258 3.3140622 2.73075648 1 2 C0.67 1.34 0.34 0.68 0 0 Z " fill="#141414" transform="translate(570,336)"/>
<path d="M0 0 C0.33 0 0.66 0 1 0 C1.33 4.62 1.66 9.24 2 14 C-0.475 13.01 -0.475 13.01 -3 12 C-2.690625 11.505 -2.38125 11.01 -2.0625 10.5 C-0.58355618 7.02013219 -0.37597149 3.75971491 0 0 Z M0 9 C1 11 1 11 1 11 Z " fill="#2D2D2D" transform="translate(657,296)"/>
<path d="M0 0 C0.33 0 0.66 0 1 0 C1 7.59 1 15.18 1 23 C0.67 23 0.34 23 0 23 C0 15.41 0 7.82 0 0 Z " fill="#000000" transform="translate(853,593)"/>
<path d="M0 0 C1.11375 0.598125 2.2275 1.19625 3.375 1.8125 C4.00148438 2.14894531 4.62796875 2.48539063 5.2734375 2.83203125 C7 4 7 4 9 7 C6.625 6.75 6.625 6.75 4 6 C2.875 4 2.875 4 2 2 C1.01 1.67 0.02 1.34 -1 1 C-0.67 0.67 -0.34 0.34 0 0 Z " fill="#111111" transform="translate(299,888)"/>
<path d="M0 0 C3.91211733 1.15585285 6.8745041 2.35534962 10 5 C9.01 5.33 8.02 5.66 7 6 C5.65599167 5.01439389 4.32392972 4.01241685 3 3 C0.35065178 2.28566879 0.35065178 2.28566879 -2 2 C-1.34 1.34 -0.68 0.68 0 0 Z " fill="#090909" transform="translate(637,359)"/>
<path d="M0 0 C-0.33 0.99 -0.66 1.98 -1 3 C-3.31 3 -5.62 3 -8 3 C-8.33 2.34 -8.66 1.68 -9 1 C-3.375 -1.125 -3.375 -1.125 0 0 Z " fill="#151515" transform="translate(430,341)"/>
<path d="M0 0 C7.66742597 5.0022779 7.66742597 5.0022779 9 9 C5.18063472 7.44396229 2.73955562 5.04395069 0 2 C0 1.34 0 0.68 0 0 Z " fill="#2E2E2E" transform="translate(301,817)"/>
<path d="M0 0 C0.33 0 0.66 0 1 0 C1 6.27 1 12.54 1 19 C0.67 19 0.34 19 0 19 C0 12.73 0 6.46 0 0 Z " fill="#000000" transform="translate(853,627)"/>
<path d="M0 0 C4.455 0.99 4.455 0.99 9 2 C8.01 2.66 7.02 3.32 6 4 C2.8125 3.125 2.8125 3.125 0 2 C0 1.34 0 0.68 0 0 Z " fill="#030303" transform="translate(600,344)"/>
<path d="M0 0 C6.27 0 12.54 0 19 0 C19 0.33 19 0.66 19 1 C12.73 1 6.46 1 0 1 C0 0.67 0 0.34 0 0 Z " fill="#000000" transform="translate(509,274)"/>
<path d="M0 0 C3.0916909 2.52956528 3.90931332 5.22454612 5 9 C4.34 9 3.68 9 3 9 C2.67 7.35 2.34 5.7 2 4 C1.34 4 0.68 4 0 4 C-0.33 3.01 -0.66 2.02 -1 1 C-0.67 0.67 -0.34 0.34 0 0 Z " fill="#141414" transform="translate(206,777)"/>
<path d="M0 0 C0.66 0.33 1.32 0.66 2 1 C0.35 2.65 -1.3 4.3 -3 6 C-3.66 5.67 -4.32 5.34 -5 5 C-5 4.34 -5 3.68 -5 3 C-2.625 1.3125 -2.625 1.3125 0 0 Z " fill="#131313" transform="translate(683,912)"/>
<path d="M0 0 C4.29 0 8.58 0 13 0 C13 0.33 13 0.66 13 1 C8.71 1 4.42 1 0 1 C0 0.67 0 0.34 0 0 Z " fill="#000000" transform="translate(491,274)"/>
<path d="M0 0 C0.33 0 0.66 0 1 0 C1 1.98 1 3.96 1 6 C0.67 6 0.34 6 0 6 C0 4.02 0 2.04 0 0 Z " fill="#000000" transform="translate(708,220)"/>
<path d="M0 0 C0.33 0 0.66 0 1 0 C1 1.65 1 3.3 1 5 C0.67 5 0.34 5 0 5 C0 3.35 0 1.7 0 0 Z " fill="#000000" transform="translate(225,578)"/>
<path d="M0 0 C0.33 0 0.66 0 1 0 C1 1.65 1 3.3 1 5 C0.67 5 0.34 5 0 5 C0 3.35 0 1.7 0 0 Z " fill="#000000" transform="translate(714,314)"/>
<path d="M0 0 C0.33 0 0.66 0 1 0 C1 1.65 1 3.3 1 5 C0.67 5 0.34 5 0 5 C0 3.35 0 1.7 0 0 Z " fill="#000000" transform="translate(713,294)"/>
<path d="M0 0 C1 4 1 4 1 4 Z " fill="#000000" transform="translate(708,464)"/>
<path d="M0 0 C3 1 3 1 3 1 Z " fill="#000000" transform="translate(553,959)"/>
<path d="M0 0 C3 1 3 1 3 1 Z " fill="#000000" transform="translate(591,952)"/>
<path d="M0 0 C3 1 3 1 3 1 Z " fill="#000000" transform="translate(426,952)"/>
<path d="" fill="#000000" transform="translate(0,0)"/>
<path d="" fill="#000000" transform="translate(0,0)"/>
<path d="" fill="#000000" transform="translate(0,0)"/>
<path d="" fill="#000000" transform="translate(0,0)"/>
<path d="" fill="#000000" transform="translate(0,0)"/>
<path d="" fill="#000000" transform="translate(0,0)"/>
<path d="" fill="#000000" transform="translate(0,0)"/>
<path d="M0 0 C2 1 2 1 2 1 Z " fill="#000000" transform="translate(587,953)"/>
<path d="M0 0 C2 1 2 1 2 1 Z " fill="#000000" transform="translate(610,947)"/>
<path d="M0 0 C2 1 2 1 2 1 Z " fill="#000000" transform="translate(408,947)"/>
<path d="M0 0 C2 1 2 1 2 1 Z " fill="#000000" transform="translate(630,940)"/>
<path d="M0 0 C2 1 2 1 2 1 Z " fill="#000000" transform="translate(388,940)"/>
<path d="M0 0 C2 1 2 1 2 1 Z " fill="#000000" transform="translate(364,930)"/>
<path d="M0 0 C2 1 2 1 2 1 Z " fill="#000000" transform="translate(668,923)"/>
<path d="M0 0 C2 1 2 1 2 1 Z " fill="#000000" transform="translate(329,911)"/>
<path d="M0 0 C2 1 2 1 2 1 Z " fill="#000000" transform="translate(576,897)"/>
<path d="M0 0 C2 1 2 1 2 1 Z " fill="#000000" transform="translate(650,868)"/>
<path d="" fill="#000000" transform="translate(0,0)"/>
<path d="" fill="#000000" transform="translate(0,0)"/>
<path d="" fill="#000000" transform="translate(0,0)"/>
<path d="" fill="#000000" transform="translate(0,0)"/>
<path d="" fill="#000000" transform="translate(0,0)"/>
<path d="" fill="#000000" transform="translate(0,0)"/>
<path d="" fill="#000000" transform="translate(0,0)"/>
<path d="" fill="#000000" transform="translate(0,0)"/>
<path d="" fill="#000000" transform="translate(0,0)"/>
<path d="M0 0 C2 1 2 1 2 1 Z " fill="#000000" transform="translate(382,298)"/>
<path d="M0 0 C2 1 2 1 2 1 Z " fill="#000000" transform="translate(417,286)"/>
<path d="M0 0 C2 1 2 1 2 1 Z " fill="#000000" transform="translate(438,281)"/>
<path d="" fill="#000000" transform="translate(0,0)"/>
<path d="" fill="#000000" transform="translate(0,0)"/>
<path d="" fill="#000000" transform="translate(0,0)"/>
<path d="" fill="#000000" transform="translate(0,0)"/>
<path d="" fill="#000000" transform="translate(0,0)"/>
<path d="" fill="#000000" transform="translate(0,0)"/>
<path d="" fill="#000000" transform="translate(0,0)"/>
<path d="" fill="#000000" transform="translate(0,0)"/>
<path d="" fill="#000000" transform="translate(0,0)"/>
<path d="" fill="#000000" transform="translate(0,0)"/>
<path d="" fill="#000000" transform="translate(0,0)"/>
<path d="" fill="#000000" transform="translate(0,0)"/>
<path d="" fill="#000000" transform="translate(0,0)"/>
<path d="" fill="#000000" transform="translate(0,0)"/>
<path d="" fill="#000000" transform="translate(0,0)"/>
<path d="" fill="#000000" transform="translate(0,0)"/>
<path d="" fill="#000000" transform="translate(0,0)"/>
<path d="" fill="#000000" transform="translate(0,0)"/>
<path d="" fill="#000000" transform="translate(0,0)"/>
<path d="" fill="#000000" transform="translate(0,0)"/>
<path d="" fill="#000000" transform="translate(0,0)"/>
<path d="" fill="#000000" transform="translate(0,0)"/>
<path d="" fill="#000000" transform="translate(0,0)"/>
<path d="" fill="#000000" transform="translate(0,0)"/>
<path d="" fill="#000000" transform="translate(0,0)"/>
<path d="" fill="#000000" transform="translate(0,0)"/>
<path d="" fill="#000000" transform="translate(0,0)"/>
<path d="" fill="#000000" transform="translate(0,0)"/>
<path d="" fill="#000000" transform="translate(0,0)"/>
<path d="" fill="#000000" transform="translate(0,0)"/>
<path d="" fill="#000000" transform="translate(0,0)"/>
<path d="" fill="#000000" transform="translate(0,0)"/>
<path d="" fill="#000000" transform="translate(0,0)"/>
<path d="" fill="#000000" transform="translate(0,0)"/>
<path d="" fill="#000000" transform="translate(0,0)"/>
<path d="" fill="#000000" transform="translate(0,0)"/>
<path d="" fill="#000000" transform="translate(0,0)"/>
<path d="" fill="#000000" transform="translate(0,0)"/>
<path d="" fill="#000000" transform="translate(0,0)"/>
<path d="" fill="#000000" transform="translate(0,0)"/>
<path d="" fill="#000000" transform="translate(0,0)"/>
<path d="" fill="#000000" transform="translate(0,0)"/>
<path d="" fill="#000000" transform="translate(0,0)"/>
<path d="" fill="#000000" transform="translate(0,0)"/>
<path d="" fill="#000000" transform="translate(0,0)"/>
<path d="" fill="#000000" transform="translate(0,0)"/>
<path d="" fill="#000000" transform="translate(0,0)"/>
<path d="" fill="#000000" transform="translate(0,0)"/>
<path d="" fill="#000000" transform="translate(0,0)"/>
<path d="" fill="#000000" transform="translate(0,0)"/>
<path d="" fill="#000000" transform="translate(0,0)"/>
<path d="" fill="#000000" transform="translate(0,0)"/>
<path d="" fill="#000000" transform="translate(0,0)"/>
<path d="" fill="#000000" transform="translate(0,0)"/>
<path d="" fill="#000000" transform="translate(0,0)"/>
<path d="" fill="#000000" transform="translate(0,0)"/>
<path d="" fill="#000000" transform="translate(0,0)"/>
<path d="" fill="#000000" transform="translate(0,0)"/>
<path d="" fill="#000000" transform="translate(0,0)"/>
<path d="" fill="#000000" transform="translate(0,0)"/>
<path d="" fill="#000000" transform="translate(0,0)"/>
<path d="" fill="#000000" transform="translate(0,0)"/>
<path d="" fill="#000000" transform="translate(0,0)"/>
<path d="" fill="#000000" transform="translate(0,0)"/>
<path d="" fill="#000000" transform="translate(0,0)"/>
<path d="" fill="#000000" transform="translate(0,0)"/>
<path d="" fill="#000000" transform="translate(0,0)"/>
<path d="" fill="#000000" transform="translate(0,0)"/>
</svg>
